<svg width="98" height="24" viewBox="0 0 98 24" fill="none" xmlns="http://www.w3.org/2000/svg">
<path d="M17.0493 8.54724C17.0493 9.33601 17.1839 10.1268 17.4572 10.8868C19.0223 8.20832 21.0741 4.66709 21.1561 4.52946C20.8912 4.47606 20.6085 4.45654 20.3404 4.45654C18.6176 4.45654 17.0493 6.40689 17.0493 8.54724Z" fill="#D7AA2E"/>
<path d="M28.3071 16.6801V19.5538C27.3191 19.5538 26.3688 19.5312 25.4554 19.4172V22.3453H22.2778V18.7435C21.1131 18.384 20.0462 17.9054 19.0823 17.3231L20.6107 14.7072C21.1152 15.0328 21.6618 15.3347 22.2778 15.5863V8.82124C21.4768 10.1934 16.4818 18.7322 16.0382 19.4891H13.1855C13.134 19.3936 9.66941 12.877 7.57554 8.98248V18.3347C7.57554 20.6086 5.57838 22.4583 3.12503 22.4583L1.54412 22.4213V19.5476L3.12503 19.5107C3.82509 19.5107 4.39586 18.9828 4.39586 18.3337V5.63434C4.39586 4.98627 3.82509 4.45735 3.12503 4.45735C2.42497 4.45735 1.54412 4.42038 1.54412 4.42038V1.54672C1.54412 1.54672 1.90571 1.50975 3.12503 1.50975C4.77321 1.50975 5.9179 1.78807 6.85026 2.41457C7.8152 3.0616 8.38807 3.9808 8.93887 4.94519L8.94097 4.9493C9.60214 6.11602 12.8071 12.1201 14.6791 15.6336C14.9556 15.1611 15.2615 14.6404 15.5831 14.091C14.4657 12.458 13.8708 10.561 13.8708 8.54599C13.8708 4.73054 16.834 1.50975 20.3395 1.50975C21.4926 1.50975 22.5238 1.74597 23.3573 2.19786C24.2256 1.7244 25.2862 1.50975 26.7283 1.50975C28.0012 1.50975 28.3082 1.54672 28.3082 1.54672V4.41935C28.3082 4.41935 27.4242 4.45632 26.7283 4.45632C26.0325 4.45632 25.4564 4.98525 25.4564 5.63331V16.4408C26.3341 16.5723 27.2833 16.6801 28.3082 16.6801M29.8523 5.96196V0.21157L28.4953 0.0492979C28.3754 0.0349193 27.9623 0.00102704 26.7283 0.00102704C25.3892 0.00102704 24.2949 0.172543 23.3563 0.53406C22.4554 0.18384 21.4285 0 20.3406 0C16.1675 0 12.6168 3.61107 12.3435 8.00166C11.3659 6.17867 10.586 4.7367 10.2875 4.21189C9.67151 3.12836 8.96515 2.00273 7.72481 1.17082C6.5202 0.361518 5.10117 0 3.12503 0C1.88889 0 1.45898 0.0390275 1.3854 0.0462167L0 0.186921V5.96196C0 5.96196 2.19372 5.95683 2.85068 5.96402V18.0091L0 18.0112V23.8951C1.42744 24.0738 3.12503 23.9701 3.12503 23.9701C6.43086 23.9701 9.12072 21.4425 9.12072 18.3357V15.1273C10.5608 17.8284 12.2457 21.0009 12.2457 21.0009H16.9349C16.9349 21.0009 17.8294 19.4685 18.314 18.6418C19.0645 19.0916 19.8738 19.4819 20.7316 19.8106V23.854H27.0006V21.044C27.4462 21.0594 27.8835 21.0625 28.3071 21.0625H29.8523V15.1724H28.3071C27.8488 15.1724 27.4084 15.1478 27.0006 15.1098V5.96402C27.6544 5.95683 29.8523 5.96196 29.8523 5.96196Z" fill="#D7AA2E"/>
<path d="M66.7852 10.3482C66.1026 10.3482 65.5293 10.2345 65.0651 10.0069C64.6009 9.77029 64.1914 9.44719 63.8364 9.03764L64.9013 8.00009C65.1652 8.30044 65.4519 8.53707 65.7613 8.70999C66.0799 8.88292 66.4439 8.96938 66.8535 8.96938C67.2722 8.96938 67.5725 8.89657 67.7545 8.75095C67.9456 8.60533 68.0412 8.4051 68.0412 8.15026C68.0412 7.94093 67.9729 7.77711 67.8364 7.6588C67.709 7.53138 67.486 7.44492 67.1675 7.39941L66.4576 7.30385C65.684 7.20373 65.0924 6.9853 64.6828 6.64856C64.2824 6.30271 64.0822 5.80214 64.0822 5.14685C64.0822 4.801 64.1459 4.49156 64.2733 4.21852C64.4007 3.93638 64.5827 3.69975 64.8194 3.50862C65.056 3.30839 65.3381 3.15822 65.6658 3.05811C66.0025 2.9489 66.3757 2.89429 66.7852 2.89429C67.1311 2.89429 67.436 2.92159 67.6999 2.9762C67.9729 3.02171 68.2187 3.09452 68.4371 3.19463C68.6555 3.28564 68.8558 3.40396 69.0378 3.54958C69.2198 3.6861 69.3973 3.84082 69.5702 4.01374L68.5463 5.03763C68.337 4.8192 68.0867 4.63718 67.7955 4.49156C67.5042 4.34594 67.1857 4.27313 66.8398 4.27313C66.4576 4.27313 66.18 4.34139 66.0071 4.47791C65.8433 4.61443 65.7613 4.7919 65.7613 5.01033C65.7613 5.24696 65.8296 5.42899 65.9661 5.55641C66.1117 5.67472 66.3529 5.76118 66.6897 5.81579L67.4132 5.91135C68.9513 6.12979 69.7204 6.83058 69.7204 8.01375C69.7204 8.35959 69.6476 8.67814 69.502 8.96938C69.3654 9.25152 69.1698 9.49725 68.9149 9.70658C68.6601 9.90681 68.3506 10.0661 67.9866 10.1844C67.6317 10.2936 67.2312 10.3482 66.7852 10.3482Z" fill="white"/>
<path d="M59.7187 10.3482C59.1908 10.3482 58.7176 10.2618 58.2989 10.0888C57.8894 9.90681 57.539 9.65652 57.2477 9.33798C56.9656 9.01033 56.7472 8.61898 56.5924 8.16392C56.4377 7.69975 56.3604 7.18098 56.3604 6.6076C56.3604 6.04332 56.4332 5.53365 56.5788 5.07859C56.7335 4.62353 56.9519 4.23672 57.2341 3.91818C57.5162 3.59053 57.8621 3.34025 58.2716 3.16733C58.6812 2.9853 59.1453 2.89429 59.6641 2.89429C60.2193 2.89429 60.7017 2.98985 61.1112 3.18098C61.5208 3.3721 61.8575 3.63149 62.1214 3.95913C62.3854 4.28678 62.5811 4.66903 62.7085 5.10589C62.845 5.53365 62.9133 5.99327 62.9133 6.48473V7.05811H58.1761V7.23559C58.1761 7.75436 58.3217 8.17302 58.6129 8.49156C58.9042 8.801 59.3365 8.95573 59.9098 8.95573C60.3467 8.95573 60.7017 8.86471 60.9747 8.68269C61.2568 8.50066 61.5071 8.26858 61.7255 7.98644L62.6675 9.03764C62.3763 9.44719 61.9758 9.77029 61.4662 10.0069C60.9656 10.2345 60.3831 10.3482 59.7187 10.3482ZM59.6914 4.20487C59.2272 4.20487 58.8586 4.35959 58.5856 4.66903C58.3126 4.97848 58.1761 5.37893 58.1761 5.8704V5.97961H61.0976V5.85675C61.0976 5.36528 60.9747 4.96937 60.729 4.66903C60.4923 4.35959 60.1465 4.20487 59.6914 4.20487Z" fill="white"/>
<path d="M54.5726 10.1842C53.972 10.1842 53.5305 10.034 53.2484 9.73367C52.9663 9.43333 52.8252 9.01012 52.8252 8.46405V0.0817871H54.5726V8.79169H55.5146V10.1842H54.5726Z" fill="white"/>
<path d="M49.926 2.02048C49.5619 2.02048 49.298 1.93857 49.1342 1.77475C48.9795 1.61092 48.9021 1.40159 48.9021 1.14676V0.873721C48.9021 0.618886 48.9795 0.409557 49.1342 0.245734C49.298 0.0819114 49.5619 0 49.926 0C50.2809 0 50.5403 0.0819114 50.7041 0.245734C50.868 0.409557 50.9499 0.618886 50.9499 0.873721V1.14676C50.9499 1.40159 50.868 1.61092 50.7041 1.77475C50.5403 1.93857 50.2809 2.02048 49.926 2.02048ZM49.0523 3.05802H50.7997V10.1843H49.0523V3.05802Z" fill="white"/>
<path d="M45.2107 3.34494H45.156L44.4188 4.8603L42.4666 8.4644L40.5144 4.8603L39.7772 3.34494H39.7226V10.1845H38.0161V0.655518H40.0502L42.4939 5.31081H42.5485L44.9649 0.655518H46.9171V10.1845H45.2107V3.34494Z" fill="white"/>
<path d="M91.4368 23.8363V16.71H93.1842V17.8977H93.2525C93.3981 17.5154 93.6256 17.1969 93.9351 16.942C94.2536 16.6781 94.6905 16.5461 95.2456 16.5461C95.9828 16.5461 96.5471 16.7873 96.9385 17.2697C97.3298 17.7521 97.5255 18.4392 97.5255 19.3311V23.8363H95.7781V19.5086C95.7781 18.9989 95.6871 18.6167 95.505 18.3618C95.323 18.107 95.0227 17.9796 94.604 17.9796C94.422 17.9796 94.2445 18.0069 94.0716 18.0615C93.9078 18.107 93.7576 18.1798 93.6211 18.2799C93.4937 18.3709 93.389 18.4893 93.3071 18.6349C93.2252 18.7714 93.1842 18.9352 93.1842 19.1263V23.8363H91.4368Z" fill="white"/>
<path d="M86.5704 24.0001C86.0607 24.0001 85.6011 23.9136 85.1915 23.7407C84.7911 23.5678 84.4452 23.3175 84.154 22.9898C83.8718 22.6622 83.6534 22.2708 83.4987 21.8158C83.344 21.3516 83.2666 20.8328 83.2666 20.2595C83.2666 19.6861 83.344 19.1719 83.4987 18.7168C83.6534 18.2617 83.8718 17.8749 84.154 17.5564C84.4452 17.2287 84.7911 16.9785 85.1915 16.8055C85.6011 16.6326 86.0607 16.5461 86.5704 16.5461C87.08 16.5461 87.5396 16.6326 87.9492 16.8055C88.3588 16.9785 88.7046 17.2287 88.9867 17.5564C89.278 17.8749 89.501 18.2617 89.6557 18.7168C89.8104 19.1719 89.8878 19.6861 89.8878 20.2595C89.8878 20.8328 89.8104 21.3516 89.6557 21.8158C89.501 22.2708 89.278 22.6622 88.9867 22.9898C88.7046 23.3175 88.3588 23.5678 87.9492 23.7407C87.5396 23.9136 87.08 24.0001 86.5704 24.0001ZM86.5704 22.5939C87.0345 22.5939 87.3986 22.4529 87.6625 22.1707C87.9264 21.8886 88.0584 21.4745 88.0584 20.9284V19.6042C88.0584 19.0672 87.9264 18.6576 87.6625 18.3755C87.3986 18.0934 87.0345 17.9523 86.5704 17.9523C86.1153 17.9523 85.7558 18.0934 85.4919 18.3755C85.2279 18.6576 85.096 19.0672 85.096 19.6042V20.9284C85.096 21.4745 85.2279 21.8886 85.4919 22.1707C85.7558 22.4529 86.1153 22.5939 86.5704 22.5939Z" fill="white"/>
<path d="M79.2662 24.0001C78.5836 24.0001 78.0102 23.8863 77.5461 23.6588C77.0819 23.4221 76.6723 23.099 76.3174 22.6895L77.3822 21.6519C77.6462 21.9523 77.9329 22.1889 78.2423 22.3618C78.5608 22.5348 78.9249 22.6212 79.3345 22.6212C79.7531 22.6212 80.0535 22.5484 80.2355 22.4028C80.4266 22.2572 80.5222 22.057 80.5222 21.8021C80.5222 21.5928 80.4539 21.429 80.3174 21.3107C80.19 21.1832 79.967 21.0968 79.6484 21.0513L78.9385 20.9557C78.1649 20.8556 77.5734 20.6372 77.1638 20.3004C76.7633 19.9546 76.5631 19.454 76.5631 18.7987C76.5631 18.4529 76.6268 18.1434 76.7542 17.8704C76.8817 17.5882 77.0637 17.3516 77.3003 17.1605C77.537 16.9603 77.8191 16.8101 78.1467 16.71C78.4835 16.6008 78.8566 16.5461 79.2662 16.5461C79.612 16.5461 79.9169 16.5734 80.1809 16.6281C80.4539 16.6736 80.6996 16.7464 80.9181 16.8465C81.1365 16.9375 81.3367 17.0558 81.5188 17.2014C81.7008 17.338 81.8783 17.4927 82.0512 17.6656L81.0273 18.6895C80.818 18.4711 80.5677 18.289 80.2764 18.1434C79.9852 17.9978 79.6666 17.925 79.3208 17.925C78.9385 17.925 78.661 17.9932 78.488 18.1298C78.3242 18.2663 78.2423 18.4438 78.2423 18.6622C78.2423 18.8988 78.3106 19.0808 78.4471 19.2083C78.5927 19.3266 78.8339 19.413 79.1706 19.4676L79.8942 19.5632C81.4323 19.7816 82.2013 20.4824 82.2013 21.6656C82.2013 22.0114 82.1285 22.33 81.9829 22.6212C81.8464 22.9034 81.6507 23.1491 81.3959 23.3584C81.141 23.5587 80.8316 23.7179 80.4676 23.8363C80.1126 23.9455 79.7122 24.0001 79.2662 24.0001Z" fill="white"/>
<path d="M71.5723 23.8362V16.71H73.3197V18.1844H73.388C73.4335 17.9932 73.5017 17.8112 73.5927 17.6383C73.6929 17.4563 73.8203 17.297 73.975 17.1605C74.1297 17.024 74.3117 16.9147 74.5211 16.8328C74.7395 16.7509 74.9898 16.71 75.2719 16.71H75.6542V18.3618H75.1081C74.5165 18.3618 74.0706 18.4483 73.7702 18.6212C73.4699 18.7941 73.3197 19.0763 73.3197 19.4676V23.8362H71.5723Z" fill="white"/>
<path d="M66.8403 24.0001C66.3124 24.0001 65.8392 23.9136 65.4205 23.7407C65.0109 23.5587 64.6605 23.3084 64.3693 22.9898C64.0872 22.6622 63.8687 22.2708 63.714 21.8158C63.5593 21.3516 63.4819 20.8328 63.4819 20.2595C63.4819 19.6952 63.5547 19.1855 63.7004 18.7304C63.8551 18.2754 64.0735 17.8886 64.3557 17.57C64.6378 17.2424 64.9836 16.9921 65.3932 16.8192C65.8028 16.6372 66.2669 16.5461 66.7857 16.5461C67.3409 16.5461 67.8232 16.6417 68.2328 16.8328C68.6423 17.024 68.9791 17.2833 69.243 17.611C69.507 17.9386 69.7026 18.3209 69.8301 18.7577C69.9666 19.1855 70.0348 19.6451 70.0348 20.1366V20.71H65.2976V20.8874C65.2976 21.4062 65.4433 21.8249 65.7345 22.1434C66.0257 22.4529 66.458 22.6076 67.0314 22.6076C67.4683 22.6076 67.8232 22.5166 68.0963 22.3345C68.3784 22.1525 68.6287 21.9204 68.8471 21.6383L69.7891 22.6895C69.4979 23.099 69.0974 23.4221 68.5877 23.6588C68.0872 23.8863 67.5047 24.0001 66.8403 24.0001ZM66.813 17.8567C66.3488 17.8567 65.9802 18.0114 65.7072 18.3209C65.4342 18.6303 65.2976 19.0308 65.2976 19.5223V19.6315H68.2191V19.5086C68.2191 19.0171 68.0963 18.6212 67.8505 18.3209C67.6139 18.0114 67.2681 17.8567 66.813 17.8567Z" fill="white"/>
<path d="M60.1973 22.6486H60.129C60.0016 23.0581 59.7604 23.3858 59.4055 23.6315C59.0505 23.8772 58.6364 24.0001 58.1632 24.0001C57.2621 24.0001 56.5704 23.677 56.0881 23.0308C55.6148 22.3846 55.3782 21.4609 55.3782 20.2595C55.3782 19.0672 55.6148 18.1525 56.0881 17.5155C56.5704 16.8693 57.2621 16.5462 58.1632 16.5462C58.6364 16.5462 59.0505 16.669 59.4055 16.9148C59.7604 17.1514 60.0016 17.4745 60.129 17.8841H60.1973V13.7339H61.9447V23.8363H60.1973V22.6486ZM58.7229 22.553C59.1415 22.553 59.4919 22.4529 59.7741 22.2527C60.0562 22.0524 60.1973 21.7657 60.1973 21.3926V19.1264C60.1973 18.7805 60.0562 18.5029 59.7741 18.2936C59.4919 18.0843 59.1415 17.9796 58.7229 17.9796C58.2678 17.9796 57.8992 18.1343 57.6171 18.4438C57.344 18.7441 57.2075 19.1491 57.2075 19.6588V20.8875C57.2075 21.3971 57.344 21.8022 57.6171 22.1025C57.8992 22.4028 58.2678 22.553 58.7229 22.553Z" fill="white"/>
<path d="M47.748 23.8363V16.71H49.4955V17.8977H49.5637C49.7094 17.5154 49.9369 17.1969 50.2463 16.942C50.5649 16.6781 51.0017 16.5461 51.5569 16.5461C52.2941 16.5461 52.8584 16.7873 53.2498 17.2697C53.6411 17.7521 53.8368 18.4392 53.8368 19.3311V23.8363H52.0893V19.5086C52.0893 18.9989 51.9983 18.6167 51.8163 18.3618C51.6343 18.107 51.3339 17.9796 50.9153 17.9796C50.7333 17.9796 50.5558 18.0069 50.3829 18.0615C50.219 18.107 50.0689 18.1798 49.9323 18.2799C49.8049 18.3709 49.7003 18.4893 49.6184 18.6349C49.5364 18.7714 49.4955 18.9352 49.4955 19.1263V23.8363H47.748Z" fill="white"/>
<path d="M44.5827 23.8361L43.8182 21.4061H40.4325L39.6816 23.8361H37.8523L41.0468 14.3071H43.2857L46.453 23.8361H44.5827ZM42.1526 15.9454H42.0844L40.8694 19.8634H43.3813L42.1526 15.9454Z" fill="white"/>
</svg>
